<svg width="24" height="24" viewBox="0 0 24 24" fill="none" xmlns="http://www.w3.org/2000/svg">
<path fill-rule="evenodd" clip-rule="evenodd" d="M11.0476 10.5833C12.0996 10.5833 12.9523 9.76248 12.9523 8.74996C12.9523 7.73744 12.0996 6.91663 11.0476 6.91663C9.99561 6.91663 9.14282 7.73744 9.14282 8.74996C9.14282 9.76248 9.99561 10.5833 11.0476 10.5833Z" stroke="#FFC107" stroke-width="1.5" stroke-linecap="round" stroke-linejoin="round"/>
<path fill-rule="evenodd" clip-rule="evenodd" d="M5.33336 11.5C6.12233 11.5 6.76193 10.8844 6.76193 10.125C6.76193 9.36561 6.12233 8.75 5.33336 8.75C4.54438 8.75 3.90479 9.36561 3.90479 10.125C3.90479 10.8844 4.54438 11.5 5.33336 11.5Z" stroke="#FFC107" stroke-width="1.5" stroke-linecap="round" stroke-linejoin="round"/>
<path fill-rule="evenodd" clip-rule="evenodd" d="M17.7142 10.5833C19.0292 10.5833 20.0952 9.55732 20.0952 8.29167C20.0952 7.02601 19.0292 6 17.7142 6C16.3992 6 15.3333 7.02601 15.3333 8.29167C15.3333 9.55732 16.3992 10.5833 17.7142 10.5833Z" stroke="#FFC107" stroke-width="1.5" stroke-linecap="round" stroke-linejoin="round"/>
<path d="M21.9999 19V16.0834C21.9999 14.525 20.7618 13.3334 19.1428 13.3334H16.2856C14.6666 13.3334 13.4285 14.525 13.4285 16.0834V19" stroke="#FFC107" stroke-width="1.5" stroke-linecap="round" stroke-linejoin="round"/>
<path d="M11.5239 13.3334H10.5715C8.95245 13.3334 7.71436 14.525 7.71436 16.0834V19" stroke="#FFC107" stroke-width="1.5" stroke-linecap="round" stroke-linejoin="round"/>
<path d="M5.80952 14.25H4.28571C2.99048 14.25 2 15.1437 2 16.3125V19" stroke="#FFC107" stroke-width="1.5" stroke-linecap="round" stroke-linejoin="round"/>
</svg>
