<svg viewBox="0 0 24 24" xmlns="http://www.w3.org/2000/svg">
    <path fill-rule="evenodd" clip-rule="evenodd" d="M5.26688 11.1802C5.19616 11.1041 5.13936 11.0194 5.09664 10.9295C4.96853 10.6597 4.96705 10.3428 5.09664 10.0705C5.13936 9.98058 5.19616 9.89588 5.26688 9.81983C6.35515 8.62172 7.32735 7.76803 8.41179 7.22941C9.51807 6.67993 10.6557 6.5 12 6.5C13.3443 6.5 14.4819 6.67991 15.5882 7.22939C16.6727 7.768 17.6449 8.62168 18.7331 9.81982C18.8039 9.89587 18.8607 9.98057 18.9034 10.0705C18.968 10.2064 19.0001 10.3533 19 10.5C18.9999 10.7453 18.9101 10.9898 18.7331 11.1802C17.6449 12.3783 16.6727 13.232 15.5882 13.7706C14.4819 14.3201 13.3443 14.5 12 14.5C10.6557 14.5 9.51807 14.3201 8.41179 13.7706C7.32736 13.232 6.35515 12.3783 5.26688 11.1802ZM9.30146 9.02063C8.70805 9.31537 8.10415 9.77334 7.37809 10.5C8.10415 11.2267 8.70805 11.6846 9.30146 11.9794C9.34196 11.9995 9.38265 12.019 9.42358 12.0378C9.15459 11.5881 9 11.0621 9 10.5C9 9.93789 9.15459 9.4119 9.42358 8.9622C9.38265 8.98104 9.34196 9.00052 9.30146 9.02063ZM14.5764 8.96216C14.8454 9.41186 15 9.93788 15 10.5C15 11.0621 14.8454 11.5881 14.5764 12.0378C14.6173 12.019 14.658 11.9995 14.6986 11.9794C15.292 11.6847 15.8959 11.2267 16.6219 10.5C15.8959 9.77332 15.292 9.31535 14.6986 9.02061C14.658 9.00049 14.6173 8.98101 14.5764 8.96216ZM11 10.5C11 9.94772 11.4477 9.5 12 9.5C12.5523 9.5 13 9.94772 13 10.5C13 11.0523 12.5523 11.5 12 11.5C11.4477 11.5 11 11.0523 11 10.5Z" />
    <path fill-rule="evenodd" clip-rule="evenodd" d="M2 5.5C2 3.84315 3.34315 2.5 5 2.5H19C20.6569 2.5 22 3.84315 22 5.5V15.5C22 17.1569 20.6569 18.5 19 18.5H5C3.34315 18.5 2 17.1569 2 15.5V5.5ZM5 4.5C4.44772 4.5 4 4.94772 4 5.5V15.5C4 16.0523 4.44772 16.5 5 16.5H19C19.5523 16.5 20 16.0523 20 15.5V5.5C20 4.94772 19.5523 4.5 19 4.5H5Z" />
    <path d="M9 19.5C8.44772 19.5 8 19.9477 8 20.5C8 21.0523 8.44772 21.5 9 21.5H15C15.5523 21.5 16 21.0523 16 20.5C16 19.9477 15.5523 19.5 15 19.5H9Z" />
</svg>
