<svg viewBox="0 0 20 20" xmlns="http://www.w3.org/2000/svg">
<path fill-rule="evenodd" clip-rule="evenodd" d="M3.26688 9.18017C3.19616 9.10412 3.13936 9.01942 3.09664 8.92947C2.96853 8.65975 2.96705 8.34284 3.09664 8.07053C3.13936 7.98058 3.19616 7.89588 3.26688 7.81983C4.35515 6.62172 5.32735 5.76803 6.41179 5.22941C7.51807 4.67993 8.6557 4.5 10 4.5C11.3443 4.5 12.4819 4.67991 13.5882 5.22939C14.6727 5.768 15.6449 6.62168 16.7331 7.81982C16.8039 7.89587 16.8607 7.98057 16.9034 8.07053C16.968 8.20638 17.0001 8.35334 17 8.5C16.9999 8.74534 16.9101 8.98984 16.7331 9.18017C15.6449 10.3783 14.6727 11.232 13.5882 11.7706C12.4819 12.3201 11.3443 12.5 10 12.5C8.6557 12.5 7.51807 12.3201 6.41179 11.7706C5.32736 11.232 4.35515 10.3783 3.26688 9.18017ZM7.30146 7.02063C6.70805 7.31537 6.10415 7.77334 5.37809 8.5C6.10415 9.22665 6.70805 9.68463 7.30146 9.97937C7.34196 9.99948 7.38265 10.019 7.42358 10.0378C7.15459 9.5881 7 9.06211 7 8.5C7 7.93789 7.15459 7.4119 7.42358 6.9622C7.38265 6.98104 7.34196 7.00052 7.30146 7.02063ZM12.5764 6.96216C12.8454 7.41186 13 7.93788 13 8.5C13 9.06212 12.8454 9.58813 12.5764 10.0378C12.6173 10.019 12.658 9.99951 12.6986 9.97939C13.292 9.68465 13.8959 9.22667 14.6219 8.5C13.8959 7.77332 13.292 7.31535 12.6986 7.02061C12.658 7.00049 12.6173 6.98101 12.5764 6.96216ZM9 8.5C9 7.94772 9.44772 7.5 10 7.5C10.5523 7.5 11 7.94772 11 8.5C11 9.05228 10.5523 9.5 10 9.5C9.44772 9.5 9 9.05228 9 8.5Z" />
<path fill-rule="evenodd" clip-rule="evenodd" d="M0 3.5C0 1.84315 1.34315 0.5 3 0.5H17C18.6569 0.5 20 1.84315 20 3.5V13.5C20 15.1569 18.6569 16.5 17 16.5H3C1.34315 16.5 0 15.1569 0 13.5V3.5ZM3 2.5C2.44772 2.5 2 2.94772 2 3.5V13.5C2 14.0523 2.44772 14.5 3 14.5H17C17.5523 14.5 18 14.0523 18 13.5V3.5C18 2.94772 17.5523 2.5 17 2.5H3Z" />
<path d="M7 17.5C6.44772 17.5 6 17.9477 6 18.5C6 19.0523 6.44772 19.5 7 19.5H13C13.5523 19.5 14 19.0523 14 18.5C14 17.9477 13.5523 17.5 13 17.5H7Z" />
</svg>
