<svg viewBox="0 0 25 25" xmlns="http://www.w3.org/2000/svg">
<path fill-rule="evenodd" clip-rule="evenodd" d="M10.3576 3.54579C8.87236 2.07735 6.56625 2.07735 5.081 3.54579L4.37921 4.23962C3.30913 5.29759 2.64889 6.98658 3.10382 8.74246C3.68896 11.6763 5.37552 14.8385 8.10127 17.4306C10.7059 20.0012 13.9105 21.783 16.9147 22.3542L16.932 22.3573C18.5847 22.6544 20.1682 22.19 21.3856 20.9864L22.0874 20.2925C22.1814 20.1995 22.2647 20.0961 22.3355 19.9841C22.8016 19.2467 22.9933 18.3633 22.9534 17.5351C22.9132 16.6998 22.6292 15.7774 21.9668 15.029C21.9411 15 21.9145 14.9718 21.8869 14.9445L20.6838 13.7551C19.3991 12.4849 17.3937 12.4849 16.109 13.7551L15.6953 14.1641C14.7541 13.6627 13.8142 13.0095 13.0645 12.2683C12.2027 11.4162 11.5551 10.5466 11.1303 9.71575L11.4604 9.38941C12.0802 8.7766 12.4864 7.97351 12.5155 7.08172C12.5448 6.18311 12.1839 5.35136 11.5607 4.73522L10.3576 3.54579ZM6.48713 4.96803C7.19323 4.26993 8.24539 4.26993 8.95148 4.96803L10.1545 6.15746C10.4089 6.40898 10.5265 6.71189 10.5166 7.0165C10.5066 7.32226 10.3669 7.65812 10.0543 7.96716L9.25224 8.76012C9.12209 8.88879 9.02626 9.04777 8.9759 9.22082C8.91401 9.43352 8.9245 9.66076 9.00573 9.86686C9.52575 11.1864 10.4467 12.4926 11.6583 13.6905C12.7654 14.785 14.1627 15.6791 15.4649 16.2827C15.7254 16.4035 16.0253 16.4064 16.2882 16.2907C16.3996 16.2417 16.5118 16.1692 16.6128 16.0694L17.5151 15.1773C18.0207 14.6775 18.7721 14.6775 19.2777 15.1773L20.4745 16.3606C20.776 16.7046 20.9331 17.1619 20.9557 17.6313C20.978 18.0936 20.8686 18.5485 20.6598 18.8914L19.9795 19.5641C19.237 20.2982 18.3148 20.5738 17.2859 20.3888L17.2834 20.3884C14.7349 19.9025 11.8744 18.3467 9.49991 16.0009L9.48585 15.9873C7.02604 13.6506 5.55441 10.8363 5.05994 8.32478C5.05565 8.303 5.05064 8.28138 5.04492 8.25994C4.78419 7.28362 5.14269 6.29725 5.78535 5.66187L6.48713 4.96803Z" fill="#2BA329"/>
<path d="M21.569 7.92279C21.5384 7.73047 21.5989 7.53463 21.7287 7.39967L22.6607 6.43087C23.2552 5.81288 22.9082 4.7791 22.0622 4.64806L20.8278 4.45685C20.6519 4.42959 20.496 4.3115 20.4148 4.13597L19.9157 3.05761C19.5374 2.24018 18.3794 2.24004 18.0009 3.05739L17.5016 4.13567C17.4203 4.31143 17.264 4.42955 17.0888 4.45684L15.8537 4.64812C15.0078 4.77914 14.6608 5.81294 15.2553 6.43093L16.1872 7.39967C16.317 7.53459 16.3778 7.73067 16.3468 7.92338L16.1393 9.2136C15.9987 10.088 16.9258 10.7392 17.6963 10.3073L18.7044 9.74216C18.8633 9.65313 19.0526 9.65316 19.2112 9.74214L20.2196 10.3075C20.9901 10.7394 21.9172 10.0882 21.7766 9.21384L21.569 7.92279Z" fill="#FFC000"/>
</svg>
