<svg viewBox="0 0 25 25" xmlns="http://www.w3.org/2000/svg">
<path fill-rule="evenodd" clip-rule="evenodd" d="M19.8848 14.8325C19.5602 15.1699 19.4091 15.6595 19.4855 16.1403L20.0045 19.3679C20.356 21.5539 18.0382 23.1819 16.1119 22.102L13.5911 20.6887C13.1945 20.4662 12.7212 20.4661 12.3241 20.6887L9.80382 22.1015C7.87757 23.1812 5.55988 21.5532 5.91137 19.3673L6.43004 16.1418C6.50756 15.66 6.35554 15.1698 6.03098 14.8325L3.7012 12.4106C2.21495 10.8657 3.08255 8.28117 5.19739 7.95362L8.28497 7.47541C8.72312 7.40719 9.1137 7.11188 9.31701 6.67249L10.5654 3.97678C11.5116 1.93342 14.4065 1.93376 15.3523 3.97734L16.6 6.67325C16.803 7.11207 17.1928 7.40729 17.6326 7.47543L20.7186 7.95347C22.8334 8.28107 23.701 10.8655 22.2148 12.4105L19.8848 14.8325Z" fill="#FFC000"/>
</svg>
