<svg width="380" height="113" viewBox="0 0 380 113" fill="none" xmlns="http://www.w3.org/2000/svg">
<path d="M346.21 12H5.93251C3.20836 12 1 14.2095 1 16.9351V50.4935C1 53.2191 3.20836 55.4286 5.93251 55.4286H346.21C348.934 55.4286 351.143 53.2191 351.143 50.4935V16.9351C351.143 14.2095 348.934 12 346.21 12Z" fill="#33394C"/>
<path d="M366.21 58H25.9325C23.2084 58 21 60.2095 21 62.9351V96.4935C21 99.2191 23.2084 101.429 25.9325 101.429H366.21C368.934 101.429 371.143 99.2191 371.143 96.4935V62.9351C371.143 60.2095 368.934 58 366.21 58Z" fill="#33394C"/>
<path fill-rule="evenodd" clip-rule="evenodd" d="M90.4083 38.0895C91.3984 38.8998 91.916 39.6769 91.9908 40.4655C92.0992 41.6083 91.2274 42.4445 90.5268 43.1165C90.4057 43.2327 90.2908 43.3429 90.1849 43.4503C89.7923 43.848 89.1414 44.0361 88.3023 43.9943C86.226 43.8909 82.2903 42.2636 78.0317 38.0179C75.6388 35.6318 73.7676 33.0056 72.7628 30.623C71.8352 28.4236 71.7484 26.6381 72.5308 25.8469C72.6358 25.7405 72.7434 25.6252 72.8572 25.503C73.5036 24.8101 74.3082 23.9477 75.4076 24.0025C76.2178 24.0428 77.02 24.559 77.8603 25.5805C78.9469 26.8987 79.399 27.8631 79.3261 28.707C79.2574 29.5017 78.7342 30.0228 78.1804 30.5745C78.1174 30.6372 78.0534 30.7009 77.989 30.7661C77.8014 30.9558 77.9908 31.5114 78.4954 32.253C79.0031 32.9991 79.8289 33.9442 80.9498 35.062C83.5347 37.638 84.6014 38.0567 85.0072 38.0769C85.1467 38.0838 85.2076 38.0411 85.2451 38.0032C85.3099 37.9374 85.3732 37.8725 85.4354 37.8084C86.0452 37.1809 86.6212 36.5883 87.5779 36.636C88.344 36.6741 89.2434 37.136 90.4083 38.0895Z" fill="#F6AB55"/>
<path d="M86.7194 25.0073C86.3261 24.6139 85.6884 24.6139 85.295 25.0073C84.9017 25.4006 84.9017 26.0384 85.295 26.4317C85.289 26.4257 85.2894 26.4264 85.2945 26.4359C85.3102 26.4646 85.3699 26.5737 85.4274 26.8182C85.4951 27.1059 85.5342 27.4716 85.5342 27.8561C85.5342 28.2407 85.4951 28.6063 85.4274 28.8941C85.3699 29.1386 85.3103 29.2476 85.2946 29.2764C85.2894 29.2859 85.289 29.2866 85.295 29.2806C84.9017 29.6739 84.9017 30.3116 85.2951 30.7049C85.6884 31.0983 86.3261 31.0983 86.7194 30.705C86.7134 30.711 86.7141 30.7106 86.7236 30.7054C86.7523 30.6897 86.8614 30.6301 87.1059 30.5726C87.3937 30.5049 87.7593 30.4658 88.1439 30.4658C88.5284 30.4658 88.8941 30.5049 89.1818 30.5726C89.4263 30.6301 89.5354 30.6897 89.5641 30.7054C89.5736 30.7106 89.5743 30.711 89.5683 30.705C89.9616 31.0983 90.5994 31.0983 90.9927 30.705C91.3861 30.3116 91.3861 29.6739 90.9927 29.2806C90.6123 28.9001 90.0747 28.7132 89.6432 28.6117C89.4162 28.5583 89.1763 28.519 88.9317 28.4927L91.705 25.7194C92.0983 25.3261 92.0983 24.6884 91.705 24.295C91.3116 23.9017 90.6739 23.9017 90.2806 24.295L87.5073 27.0683C87.481 26.8237 87.4417 26.5838 87.3883 26.3568C87.2868 25.9253 87.0999 25.3877 86.7194 25.0073Z" fill="#F6AB55"/>
<path fill-rule="evenodd" clip-rule="evenodd" d="M111.991 86.4655C111.916 85.6769 111.398 84.8998 110.408 84.0895C109.243 83.136 108.344 82.6741 107.578 82.636C106.621 82.5883 106.045 83.1809 105.435 83.8084C105.373 83.8725 105.31 83.9374 105.245 84.0032C105.208 84.0411 105.147 84.0838 105.007 84.0769C104.601 84.0567 103.535 83.638 100.95 81.062C99.8289 79.9442 99.0031 78.9991 98.4954 78.253C97.9908 77.5114 97.8014 76.9558 97.989 76.7661C98.0534 76.7009 98.1174 76.6372 98.1804 76.5745C98.7342 76.0228 99.2574 75.5017 99.3261 74.707C99.399 73.8631 98.9469 72.8987 97.8603 71.5805C97.02 70.559 96.2178 70.0428 95.4076 70.0025C94.3082 69.9477 93.5036 70.8101 92.8572 71.503C92.7434 71.6252 92.6358 71.7405 92.5308 71.8469C91.7484 72.6381 91.8352 74.4236 92.7628 76.623C93.7676 79.0056 95.6388 81.6318 98.0317 84.0179C102.29 88.2636 106.226 89.8909 108.302 89.9943C109.141 90.0361 109.792 89.848 110.185 89.4503C110.291 89.3429 110.406 89.2327 110.527 89.1165C111.227 88.4445 112.099 87.6083 111.991 86.4655ZM111.705 75.9927C111.312 76.3861 110.674 76.3861 110.281 75.9927C109.9 75.6123 109.713 75.0747 109.612 74.6432C109.558 74.4162 109.519 74.1763 109.493 73.9317L106.719 76.705C106.326 77.0983 105.688 77.0983 105.295 76.705C104.902 76.3116 104.902 75.6739 105.295 75.2806L108.068 72.5073C107.824 72.481 107.584 72.4417 107.357 72.3883C106.925 72.2868 106.388 72.0999 106.007 71.7194C105.614 71.3261 105.614 70.6884 106.007 70.295C106.401 69.9017 107.038 69.9017 107.432 70.295C107.426 70.289 107.426 70.2894 107.436 70.2946C107.465 70.3103 107.574 70.3699 107.818 70.4274C108.106 70.4951 108.472 70.5342 108.856 70.5342C109.241 70.5342 109.606 70.4951 109.894 70.4274C110.139 70.3699 110.248 70.3103 110.276 70.2946C110.286 70.2894 110.287 70.289 110.281 70.295C110.674 69.9017 111.312 69.9017 111.705 70.2951C112.098 70.6884 112.098 71.3261 111.705 71.7194C111.711 71.7134 111.711 71.7141 111.705 71.7236C111.69 71.7524 111.63 71.8614 111.573 72.1059C111.505 72.3937 111.466 72.7593 111.466 73.1439C111.466 73.5284 111.505 73.8941 111.573 74.1818C111.63 74.4263 111.69 74.5354 111.705 74.5641C111.711 74.5736 111.711 74.5743 111.705 74.5683C112.098 74.9616 112.098 75.5994 111.705 75.9927Z" fill="#169C18"/>
<rect x="14" y="28" width="9" height="11" rx="4.5" fill="#161922"/>
<rect x="34" y="74" width="9" height="11" rx="4.5" fill="#161922"/>
<rect x="39" y="28" width="9" height="11" rx="4.5" fill="#161922"/>
<rect x="59" y="74" width="9" height="11" rx="4.5" fill="#161922"/>
<rect x="24" y="28" width="9" height="11" rx="4.5" fill="#161922"/>
<rect x="44" y="74" width="9" height="11" rx="4.5" fill="#161922"/>
<rect x="49" y="28" width="9" height="11" rx="4.5" fill="#161922"/>
<rect x="69" y="74" width="9" height="11" rx="4.5" fill="#161922"/>
<rect x="110" y="28" width="27" height="11" rx="5" fill="#161922"/>
<rect x="130" y="74" width="27" height="11" rx="5" fill="#161922"/>
<rect x="145" y="28" width="76" height="11" rx="5" fill="#161922"/>
<rect x="165" y="74" width="76" height="11" rx="5" fill="#161922"/>
<circle cx="36" cy="30" r="1" fill="#161922"/>
<circle cx="56" cy="76" r="1" fill="#161922"/>
<circle cx="36" cy="37" r="1" fill="#161922"/>
<circle cx="56" cy="83" r="1" fill="#161922"/>
</svg>
