<svg width="380" height="113" viewBox="0 0 380 113" fill="none" xmlns="http://www.w3.org/2000/svg">
<g clip-path="url(#clip0)">
<g filter="url(#filter0_dii)">
<path d="M318.6 17.252H30.2274C27.8425 17.252 25.9092 19.1829 25.9092 21.5649V50.8932C25.9092 53.2752 27.8425 55.2062 30.2274 55.2062H318.6C320.985 55.2062 322.918 53.2752 322.918 50.8932V21.5649C322.918 19.1829 320.985 17.252 318.6 17.252Z" fill="white" fill-opacity="0.5"/>
<path d="M47.5001 35.3664C47.5001 32.9845 45.5668 31.0535 43.182 31.0535C40.7971 31.0535 38.8638 32.9845 38.8638 35.3664V37.0916C38.8638 39.4736 40.7971 41.4046 43.182 41.4046C45.5668 41.4046 47.5001 39.4736 47.5001 37.0916V35.3664Z" fill="#E0E6EB"/>
<path d="M57.8637 35.3664C57.8637 32.9845 55.9303 31.0535 53.5455 31.0535C51.1606 31.0535 49.2273 32.9845 49.2273 35.3664V37.0916C49.2273 39.4736 51.1606 41.4046 53.5455 41.4046C55.9303 41.4046 57.8637 39.4736 57.8637 37.0916V35.3664Z" fill="#E0E6EB"/>
<path d="M60.8865 34.5038C61.602 34.5038 62.182 33.9245 62.182 33.2099C62.182 32.4953 61.602 31.916 60.8865 31.916C60.1711 31.916 59.5911 32.4953 59.5911 33.2099C59.5911 33.9245 60.1711 34.5038 60.8865 34.5038Z" fill="#E0E7EB"/>
<path d="M60.8865 40.542C61.602 40.542 62.182 39.9627 62.182 39.2481C62.182 38.5335 61.602 37.9542 60.8865 37.9542C60.1711 37.9542 59.5911 38.5335 59.5911 39.2481C59.5911 39.9627 60.1711 40.542 60.8865 40.542Z" fill="#E0E7EB"/>
<path d="M72.5455 35.3664C72.5455 32.9845 70.6122 31.0535 68.2274 31.0535C65.8425 31.0535 63.9092 32.9845 63.9092 35.3664V37.0916C63.9092 39.4736 65.8425 41.4046 68.2274 41.4046C70.6122 41.4046 72.5455 39.4736 72.5455 37.0916V35.3664Z" fill="#E0E6EB"/>
<path d="M82.9091 35.3664C82.9091 32.9845 80.9758 31.0535 78.5909 31.0535C76.206 31.0535 74.2727 32.9845 74.2727 35.3664V37.0916C74.2727 39.4736 76.206 41.4046 78.5909 41.4046C80.9758 41.4046 82.9091 39.4736 82.9091 37.0916V35.3664Z" fill="#E0E6EB"/>
<path d="M112.273 25.8779H100.182C97.7971 25.8779 95.8638 27.8089 95.8638 30.1909V42.2672C95.8638 44.6492 97.7971 46.5802 100.182 46.5802H112.273C114.658 46.5802 116.591 44.6492 116.591 42.2672V30.1909C116.591 27.8089 114.658 25.8779 112.273 25.8779Z" fill="white"/>
<path d="M112.037 39.0512C112.721 39.6103 113.079 40.1467 113.13 40.6908C113.205 41.4795 112.603 42.0565 112.118 42.5202C112.035 42.6004 111.956 42.6764 111.882 42.7506C111.611 43.025 111.161 43.1548 110.582 43.1259C109.147 43.0546 106.428 41.9316 103.485 39.0018C101.832 37.3552 100.539 35.5429 99.8451 33.8987C99.2043 32.381 99.1447 31.1489 99.6853 30.6028C99.7579 30.5294 99.8321 30.4498 99.9107 30.3655C100.357 29.8874 100.913 29.2923 101.673 29.3301C102.232 29.3579 102.787 29.7141 103.367 30.419C104.118 31.3287 104.43 31.9941 104.38 32.5765C104.333 33.125 103.971 33.4846 103.588 33.8653C103.545 33.9085 103.501 33.9525 103.456 33.9975C103.326 34.1284 103.458 34.5119 103.806 35.0236C104.157 35.5384 104.727 36.1906 105.502 36.962C107.288 38.7396 108.025 39.0285 108.305 39.0425C108.401 39.0473 108.443 39.0178 108.469 38.9917C108.514 38.9463 108.558 38.9014 108.601 38.8572C109.022 38.4242 109.42 38.0152 110.081 38.0482C110.61 38.0745 111.232 38.3932 112.037 39.0512Z" fill="#FFC000"/>
<path d="M107.974 34.7042C107.825 34.7042 107.704 34.5841 107.704 34.4359V31.7746C107.704 31.5356 107.994 31.4159 108.164 31.5849L108.998 32.4147C109.006 32.4053 109.015 32.3961 109.024 32.3871L111.901 29.5304C112.165 29.2685 112.591 29.2685 112.855 29.5304C113.117 29.7923 113.117 30.2169 112.855 30.4788L109.977 33.3356C109.968 33.3446 109.958 33.3533 109.949 33.3618L110.837 34.2462C111.007 34.4153 110.887 34.7042 110.647 34.7042H107.974Z" fill="#FFC000"/>
<path d="M141.637 31.0535H134.727C131.866 31.0535 129.546 33.3706 129.546 36.229C129.546 39.0874 131.866 41.4046 134.727 41.4046H141.637C144.498 41.4046 146.818 39.0874 146.818 36.229C146.818 33.3706 144.498 31.0535 141.637 31.0535Z" fill="#E0E6EB"/>
<path d="M242.682 31.0535H164.955C162.093 31.0535 159.773 33.3706 159.773 36.229C159.773 39.0874 162.093 41.4046 164.955 41.4046H242.682C245.544 41.4046 247.864 39.0874 247.864 36.229C247.864 33.3706 245.544 31.0535 242.682 31.0535Z" fill="#E0E6EB"/>
</g>
<g filter="url(#filter1_dii)">
<path d="M349.772 40.542H57.8521C55.4673 40.542 53.5339 42.473 53.5339 44.855V74.1832C53.5339 76.5652 55.4673 78.4962 57.8521 78.4962H349.772C352.157 78.4962 354.091 76.5652 354.091 74.1832V44.855C354.091 42.473 352.157 40.542 349.772 40.542Z" fill="white" fill-opacity="0.5"/>
<path d="M75.1249 58.6565C75.1249 56.2745 73.1916 54.3435 70.8067 54.3435C68.4218 54.3435 66.4885 56.2745 66.4885 58.6565V60.3817C66.4885 62.7637 68.4218 64.6946 70.8067 64.6946C73.1916 64.6946 75.1249 62.7637 75.1249 60.3817V58.6565Z" fill="#E0E6EB"/>
<path d="M85.4884 58.6565C85.4884 56.2745 83.5551 54.3435 81.1702 54.3435C78.7854 54.3435 76.8521 56.2745 76.8521 58.6565V60.3817C76.8521 62.7637 78.7854 64.6946 81.1702 64.6946C83.5551 64.6946 85.4884 62.7637 85.4884 60.3817V58.6565Z" fill="#E0E6EB"/>
<path d="M88.5115 57.7938C89.227 57.7938 89.807 57.2145 89.807 56.5C89.807 55.7854 89.227 55.2061 88.5115 55.2061C87.7961 55.2061 87.2161 55.7854 87.2161 56.5C87.2161 57.2145 87.7961 57.7938 88.5115 57.7938Z" fill="#E0E7EB"/>
<path d="M88.5115 63.8321C89.227 63.8321 89.807 63.2528 89.807 62.5382C89.807 61.8236 89.227 61.2443 88.5115 61.2443C87.7961 61.2443 87.2161 61.8236 87.2161 62.5382C87.2161 63.2528 87.7961 63.8321 88.5115 63.8321Z" fill="#E0E7EB"/>
<path d="M100.171 58.6565C100.171 56.2745 98.2372 54.3435 95.8524 54.3435C93.4675 54.3435 91.5342 56.2745 91.5342 58.6565V60.3817C91.5342 62.7637 93.4675 64.6946 95.8524 64.6946C98.2372 64.6946 100.171 62.7637 100.171 60.3817V58.6565Z" fill="#E0E6EB"/>
<path d="M110.534 58.6565C110.534 56.2745 108.601 54.3435 106.216 54.3435C103.831 54.3435 101.898 56.2745 101.898 58.6565V60.3817C101.898 62.7637 103.831 64.6946 106.216 64.6946C108.601 64.6946 110.534 62.7637 110.534 60.3817V58.6565Z" fill="#E0E6EB"/>
<path d="M139.898 49.168H127.807C125.422 49.168 123.489 51.099 123.489 53.4809V65.5573C123.489 67.9393 125.422 69.8703 127.807 69.8703H139.898C142.283 69.8703 144.216 67.9393 144.216 65.5573V53.4809C144.216 51.099 142.283 49.168 139.898 49.168Z" fill="white"/>
<path d="M139.661 62.3411C140.345 62.9002 140.703 63.4366 140.755 63.9807C140.83 64.7694 140.228 65.3464 139.743 65.8101C139.659 65.8903 139.58 65.9663 139.507 66.0405C139.235 66.3149 138.786 66.4447 138.206 66.4158C136.771 66.3445 134.053 65.2216 131.11 62.2917C129.457 60.6452 128.164 58.8328 127.47 57.1886C126.829 55.6709 126.769 54.4388 127.309 53.8928C127.382 53.8194 127.456 53.7397 127.535 53.6555C127.981 53.1773 128.538 52.5822 129.298 52.62C129.857 52.6479 130.412 53.004 130.992 53.7089C131.743 54.6186 132.055 55.284 132.004 55.8665C131.957 56.4149 131.596 56.7745 131.213 57.1552C131.17 57.1984 131.125 57.2424 131.081 57.2874C130.951 57.4183 131.082 57.8018 131.431 58.3135C131.781 58.8284 132.352 59.4805 133.126 60.2519C134.912 62.0295 135.65 62.3184 135.929 62.3324C136.026 62.3372 136.068 62.3077 136.094 62.2816C136.139 62.2362 136.182 62.1914 136.226 62.1471C136.647 61.7141 137.045 61.3051 137.706 61.3381C138.235 61.3644 138.856 61.6831 139.661 62.3411Z" fill="#2BA329"/>
<path d="M140.408 52.6234C140.556 52.6234 140.677 52.7435 140.677 52.8917V55.553C140.677 55.792 140.387 55.9116 140.217 55.7426L139.383 54.9128C139.375 54.9222 139.366 54.9314 139.357 54.9404L136.48 57.7972C136.216 58.0591 135.79 58.0591 135.526 57.7972C135.264 57.5352 135.264 57.1106 135.526 56.8487L138.405 53.9919C138.413 53.9829 138.423 53.9741 138.432 53.9658L137.544 53.0813C137.374 52.9123 137.494 52.6234 137.735 52.6234H140.408Z" fill="#2BA329"/>
<path d="M169.262 54.3435H162.352C159.491 54.3435 157.171 56.6607 157.171 59.5191C157.171 62.3775 159.491 64.6946 162.352 64.6946H169.262C172.123 64.6946 174.443 62.3775 174.443 59.5191C174.443 56.6607 172.123 54.3435 169.262 54.3435Z" fill="#E0E6EB"/>
<path d="M270.307 54.3435H192.58C189.718 54.3435 187.398 56.6607 187.398 59.5191C187.398 62.3775 189.718 64.6946 192.58 64.6946H270.307C273.169 64.6946 275.489 62.3775 275.489 59.5191C275.489 56.6607 273.169 54.3435 270.307 54.3435Z" fill="#E0E6EB"/>
</g>
</g>
<defs>
<filter id="filter0_dii" x="-4.09082" y="-2.74805" width="357.009" height="97.9542" filterUnits="userSpaceOnUse" color-interpolation-filters="sRGB">
<feFlood flood-opacity="0" result="BackgroundImageFix"/>
<feColorMatrix in="SourceAlpha" type="matrix" values="0 0 0 0 0 0 0 0 0 0 0 0 0 0 0 0 0 0 127 0" result="hardAlpha"/>
<feOffset dy="10"/>
<feGaussianBlur stdDeviation="15"/>
<feColorMatrix type="matrix" values="0 0 0 0 0.446597 0 0 0 0 0.461019 0 0 0 0 0.536736 0 0 0 0.1 0"/>
<feBlend mode="normal" in2="BackgroundImageFix" result="effect1_dropShadow"/>
<feBlend mode="normal" in="SourceGraphic" in2="effect1_dropShadow" result="shape"/>
<feColorMatrix in="SourceAlpha" type="matrix" values="0 0 0 0 0 0 0 0 0 0 0 0 0 0 0 0 0 0 127 0" result="hardAlpha"/>
<feOffset dx="-1" dy="-1"/>
<feGaussianBlur stdDeviation="1"/>
<feComposite in2="hardAlpha" operator="arithmetic" k2="-1" k3="1"/>
<feColorMatrix type="matrix" values="0 0 0 0 0.4 0 0 0 0 0.4 0 0 0 0 0.4 0 0 0 0.1 0"/>
<feBlend mode="normal" in2="shape" result="effect2_innerShadow"/>
<feColorMatrix in="SourceAlpha" type="matrix" values="0 0 0 0 0 0 0 0 0 0 0 0 0 0 0 0 0 0 127 0" result="hardAlpha"/>
<feOffset dx="1" dy="1"/>
<feGaussianBlur stdDeviation="1"/>
<feComposite in2="hardAlpha" operator="arithmetic" k2="-1" k3="1"/>
<feColorMatrix type="matrix" values="0 0 0 0 1 0 0 0 0 1 0 0 0 0 1 0 0 0 0.8 0"/>
<feBlend mode="normal" in2="effect2_innerShadow" result="effect3_innerShadow"/>
</filter>
<filter id="filter1_dii" x="23.5339" y="20.542" width="360.557" height="97.9542" filterUnits="userSpaceOnUse" color-interpolation-filters="sRGB">
<feFlood flood-opacity="0" result="BackgroundImageFix"/>
<feColorMatrix in="SourceAlpha" type="matrix" values="0 0 0 0 0 0 0 0 0 0 0 0 0 0 0 0 0 0 127 0" result="hardAlpha"/>
<feOffset dy="10"/>
<feGaussianBlur stdDeviation="15"/>
<feColorMatrix type="matrix" values="0 0 0 0 0.446597 0 0 0 0 0.461019 0 0 0 0 0.536736 0 0 0 0.1 0"/>
<feBlend mode="normal" in2="BackgroundImageFix" result="effect1_dropShadow"/>
<feBlend mode="normal" in="SourceGraphic" in2="effect1_dropShadow" result="shape"/>
<feColorMatrix in="SourceAlpha" type="matrix" values="0 0 0 0 0 0 0 0 0 0 0 0 0 0 0 0 0 0 127 0" result="hardAlpha"/>
<feOffset dx="-1" dy="-1"/>
<feGaussianBlur stdDeviation="1"/>
<feComposite in2="hardAlpha" operator="arithmetic" k2="-1" k3="1"/>
<feColorMatrix type="matrix" values="0 0 0 0 0.4 0 0 0 0 0.4 0 0 0 0 0.4 0 0 0 0.1 0"/>
<feBlend mode="normal" in2="shape" result="effect2_innerShadow"/>
<feColorMatrix in="SourceAlpha" type="matrix" values="0 0 0 0 0 0 0 0 0 0 0 0 0 0 0 0 0 0 127 0" result="hardAlpha"/>
<feOffset dx="1" dy="1"/>
<feGaussianBlur stdDeviation="1"/>
<feComposite in2="hardAlpha" operator="arithmetic" k2="-1" k3="1"/>
<feColorMatrix type="matrix" values="0 0 0 0 1 0 0 0 0 1 0 0 0 0 1 0 0 0 0.8 0"/>
<feBlend mode="normal" in2="effect2_innerShadow" result="effect3_innerShadow"/>
</filter>
<clipPath id="clip0">
<rect width="380" height="113" fill="white"/>
</clipPath>
</defs>
</svg>
