<svg width="440" height="131" viewBox="0 0 440 131" fill="none" xmlns="http://www.w3.org/2000/svg">
<g filter="url(#filter0_bdii)">
<rect x="30" y="20" width="343.905" height="44" rx="5" fill="white" fill-opacity="0.5"/>
<rect x="45" y="36" width="10" height="12" rx="5" fill="#E0E6EB"/>
<rect x="57" y="36" width="10" height="12" rx="5" fill="#E0E6EB"/>
<circle cx="70.5" cy="38.5" r="1.5" fill="#E0E7EB"/>
<circle cx="70.5" cy="45.5" r="1.5" fill="#E0E7EB"/>
<rect x="74" y="36" width="10" height="12" rx="5" fill="#E0E6EB"/>
<rect x="86" y="36" width="10" height="12" rx="5" fill="#E0E6EB"/>
<rect x="111" y="30" width="24" height="24" rx="5" fill="white"/>
<path d="M129.727 45.2716C130.519 45.9198 130.933 46.5416 130.993 47.1724C131.079 48.0867 130.382 48.7556 129.821 49.2932C129.725 49.3862 129.633 49.4743 129.548 49.5603C129.234 49.8784 128.713 50.0289 128.042 49.9954C126.381 49.9127 123.232 48.6109 119.825 45.2143C117.911 43.3055 116.414 41.2045 115.61 39.2984C114.868 37.5389 114.799 36.1105 115.425 35.4775C115.509 35.3924 115.595 35.3001 115.686 35.2024C116.203 34.6481 116.847 33.9582 117.726 34.002C118.374 34.0343 119.016 34.4472 119.688 35.2644C120.557 36.319 120.919 37.0904 120.861 37.7656C120.806 38.4014 120.387 38.8183 119.944 39.2596C119.894 39.3097 119.843 39.3607 119.791 39.4129C119.641 39.5646 119.793 40.0092 120.196 40.6024C120.603 41.1993 121.263 41.9553 122.16 42.8496C124.228 44.9104 125.081 45.2453 125.406 45.2615C125.517 45.2671 125.566 45.2329 125.596 45.2026C125.648 45.15 125.699 45.098 125.748 45.0467C126.236 44.5447 126.697 44.0706 127.462 44.1088C128.075 44.1393 128.795 44.5088 129.727 45.2716Z" fill="#FFC000"/>
<path d="M125.022 40.2322C124.85 40.2322 124.71 40.093 124.71 39.9212V36.836C124.71 36.5589 125.046 36.4202 125.243 36.6161L126.208 37.5781C126.218 37.5672 126.228 37.5565 126.238 37.5461L129.57 34.2343C129.875 33.9307 130.369 33.9307 130.674 34.2343C130.978 34.5379 130.978 35.0302 130.674 35.3338L127.342 38.6456C127.331 38.6561 127.32 38.6662 127.309 38.676L128.338 39.7013C128.534 39.8973 128.395 40.2322 128.117 40.2322H125.022Z" fill="#FFC000"/>
<rect x="150" y="36" width="20" height="12" rx="6" fill="#E0E6EB"/>
<rect x="185" y="36" width="102" height="12" rx="6" fill="#E0E6EB"/>
</g>
<g filter="url(#filter1_bdii)">
<rect x="61.9866" y="47" width="348.013" height="44" rx="5" fill="white" fill-opacity="0.5"/>
<rect x="76.9866" y="63" width="10" height="12" rx="5" fill="#E0E6EB"/>
<rect x="88.9866" y="63" width="10" height="12" rx="5" fill="#E0E6EB"/>
<circle cx="102.487" cy="65.5" r="1.5" fill="#E0E7EB"/>
<circle cx="102.487" cy="72.5" r="1.5" fill="#E0E7EB"/>
<rect x="105.987" y="63" width="10" height="12" rx="5" fill="#E0E6EB"/>
<rect x="117.987" y="63" width="10" height="12" rx="5" fill="#E0E6EB"/>
<rect x="142.987" y="57" width="24" height="24" rx="5" fill="white"/>
<path d="M161.713 72.2716C162.505 72.9198 162.919 73.5416 162.979 74.1724C163.066 75.0867 162.369 75.7556 161.808 76.2932C161.711 76.3862 161.619 76.4743 161.534 76.5603C161.22 76.8784 160.7 77.0289 160.028 76.9954C158.367 76.9127 155.219 75.6109 151.812 72.2143C149.898 70.3055 148.401 68.2045 147.597 66.2984C146.855 64.5389 146.785 63.1105 147.411 62.4775C147.495 62.3924 147.581 62.3001 147.672 62.2024C148.189 61.6481 148.833 60.9582 149.713 61.002C150.361 61.0343 151.003 61.4472 151.675 62.2644C152.544 63.319 152.906 64.0904 152.847 64.7656C152.792 65.4014 152.374 65.8183 151.931 66.2596C151.881 66.3097 151.829 66.3607 151.778 66.4129C151.628 66.5646 151.779 67.0092 152.183 67.6024C152.589 68.1993 153.25 68.9553 154.146 69.8496C156.214 71.9104 157.068 72.2453 157.392 72.2615C157.504 72.2671 157.553 72.2329 157.583 72.2026C157.635 72.15 157.685 72.098 157.735 72.0467C158.223 71.5447 158.684 71.0706 159.449 71.1088C160.062 71.1393 160.781 71.5088 161.713 72.2716Z" fill="#2BA329"/>
<path d="M162.577 61.0059C162.749 61.0059 162.889 61.1451 162.889 61.3169V64.4021C162.889 64.6792 162.553 64.8179 162.356 64.622L161.391 63.66C161.381 63.6709 161.371 63.6815 161.361 63.692L158.029 67.0038C157.724 67.3074 157.23 67.3074 156.925 67.0038C156.621 66.7001 156.621 66.2079 156.925 65.9042L160.258 62.5924C160.268 62.582 160.279 62.5718 160.29 62.5621L159.261 61.5367C159.065 61.3408 159.204 61.0059 159.482 61.0059H162.577Z" fill="#2BA329"/>
<rect x="181.987" y="63" width="20" height="12" rx="6" fill="#E0E6EB"/>
<rect x="216.987" y="63" width="102" height="12" rx="6" fill="#E0E6EB"/>
</g>
<defs>
<filter id="filter0_bdii" x="0" y="0" width="403.905" height="104" filterUnits="userSpaceOnUse" color-interpolation-filters="sRGB">
<feFlood flood-opacity="0" result="BackgroundImageFix"/>
<feGaussianBlur in="BackgroundImage" stdDeviation="5"/>
<feComposite in2="SourceAlpha" operator="in" result="effect1_backgroundBlur"/>
<feColorMatrix in="SourceAlpha" type="matrix" values="0 0 0 0 0 0 0 0 0 0 0 0 0 0 0 0 0 0 127 0"/>
<feOffset dy="10"/>
<feGaussianBlur stdDeviation="15"/>
<feColorMatrix type="matrix" values="0 0 0 0 0.446597 0 0 0 0 0.461019 0 0 0 0 0.536736 0 0 0 0.1 0"/>
<feBlend mode="normal" in2="effect1_backgroundBlur" result="effect2_dropShadow"/>
<feBlend mode="normal" in="SourceGraphic" in2="effect2_dropShadow" result="shape"/>
<feColorMatrix in="SourceAlpha" type="matrix" values="0 0 0 0 0 0 0 0 0 0 0 0 0 0 0 0 0 0 127 0" result="hardAlpha"/>
<feOffset dx="-1" dy="-1"/>
<feGaussianBlur stdDeviation="1"/>
<feComposite in2="hardAlpha" operator="arithmetic" k2="-1" k3="1"/>
<feColorMatrix type="matrix" values="0 0 0 0 0.4 0 0 0 0 0.4 0 0 0 0 0.4 0 0 0 0.1 0"/>
<feBlend mode="normal" in2="shape" result="effect3_innerShadow"/>
<feColorMatrix in="SourceAlpha" type="matrix" values="0 0 0 0 0 0 0 0 0 0 0 0 0 0 0 0 0 0 127 0" result="hardAlpha"/>
<feOffset dx="1" dy="1"/>
<feGaussianBlur stdDeviation="1"/>
<feComposite in2="hardAlpha" operator="arithmetic" k2="-1" k3="1"/>
<feColorMatrix type="matrix" values="0 0 0 0 1 0 0 0 0 1 0 0 0 0 1 0 0 0 0.8 0"/>
<feBlend mode="normal" in2="effect3_innerShadow" result="effect4_innerShadow"/>
</filter>
<filter id="filter1_bdii" x="31.9866" y="27" width="408.013" height="104" filterUnits="userSpaceOnUse" color-interpolation-filters="sRGB">
<feFlood flood-opacity="0" result="BackgroundImageFix"/>
<feGaussianBlur in="BackgroundImage" stdDeviation="5"/>
<feComposite in2="SourceAlpha" operator="in" result="effect1_backgroundBlur"/>
<feColorMatrix in="SourceAlpha" type="matrix" values="0 0 0 0 0 0 0 0 0 0 0 0 0 0 0 0 0 0 127 0"/>
<feOffset dy="10"/>
<feGaussianBlur stdDeviation="15"/>
<feColorMatrix type="matrix" values="0 0 0 0 0.446597 0 0 0 0 0.461019 0 0 0 0 0.536736 0 0 0 0.1 0"/>
<feBlend mode="normal" in2="effect1_backgroundBlur" result="effect2_dropShadow"/>
<feBlend mode="normal" in="SourceGraphic" in2="effect2_dropShadow" result="shape"/>
<feColorMatrix in="SourceAlpha" type="matrix" values="0 0 0 0 0 0 0 0 0 0 0 0 0 0 0 0 0 0 127 0" result="hardAlpha"/>
<feOffset dx="-1" dy="-1"/>
<feGaussianBlur stdDeviation="1"/>
<feComposite in2="hardAlpha" operator="arithmetic" k2="-1" k3="1"/>
<feColorMatrix type="matrix" values="0 0 0 0 0.4 0 0 0 0 0.4 0 0 0 0 0.4 0 0 0 0.1 0"/>
<feBlend mode="normal" in2="shape" result="effect3_innerShadow"/>
<feColorMatrix in="SourceAlpha" type="matrix" values="0 0 0 0 0 0 0 0 0 0 0 0 0 0 0 0 0 0 127 0" result="hardAlpha"/>
<feOffset dx="1" dy="1"/>
<feGaussianBlur stdDeviation="1"/>
<feComposite in2="hardAlpha" operator="arithmetic" k2="-1" k3="1"/>
<feColorMatrix type="matrix" values="0 0 0 0 1 0 0 0 0 1 0 0 0 0 1 0 0 0 0.8 0"/>
<feBlend mode="normal" in2="effect3_innerShadow" result="effect4_innerShadow"/>
</filter>
</defs>
</svg>
