<svg width="380" height="113" viewBox="0 0 380 113" fill="none" xmlns="http://www.w3.org/2000/svg">
<g clip-path="url(#clip0)">
<g filter="url(#filter0_dii)">
<path d="M318.6 17.252H30.2274C27.8425 17.252 25.9092 19.1829 25.9092 21.5649V50.8932C25.9092 53.2752 27.8425 55.2062 30.2274 55.2062H318.6C320.985 55.2062 322.918 53.2752 322.918 50.8932V21.5649C322.918 19.1829 320.985 17.252 318.6 17.252Z" fill="white" fill-opacity="0.5"/>
<path d="M121.773 31.0535H44.0456C41.1837 31.0535 38.8638 33.3706 38.8638 36.229C38.8638 39.0874 41.1837 41.4046 44.0456 41.4046H121.773C124.635 41.4046 126.955 39.0874 126.955 36.229C126.955 33.3706 124.635 31.0535 121.773 31.0535Z" fill="#E0E6EB"/>
<path d="M152 31.0535H145.091C142.229 31.0535 139.909 33.3706 139.909 36.229C139.909 39.0874 142.229 41.4046 145.091 41.4046H152C154.862 41.4046 157.182 39.0874 157.182 36.229C157.182 33.3706 154.862 31.0535 152 31.0535Z" fill="#E0E6EB"/>
<path d="M186.546 25.8779H174.455C172.07 25.8779 170.136 27.8089 170.136 30.1909V42.2672C170.136 44.6492 172.07 46.5802 174.455 46.5802H186.546C188.93 46.5802 190.864 44.6492 190.864 42.2672V30.1909C190.864 27.8089 188.93 25.8779 186.546 25.8779Z" fill="white"/>
<path d="M180.5 42.2673C183.839 42.2673 186.546 39.5639 186.546 36.2291C186.546 32.8943 183.839 30.1909 180.5 30.1909C177.161 30.1909 174.455 32.8943 174.455 36.2291C174.455 39.5639 177.161 42.2673 180.5 42.2673Z" fill="#6FCF97"/>
<path d="M202.474 32.0886V40.542H201.604V32.8615H199.609V32.0886H202.474ZM210.277 39.7691V40.542H204.341V39.9261L207.859 36.4844C208.302 36.0496 208.6 35.6752 208.754 35.3613C208.915 35.0392 208.996 34.7172 208.996 34.3952C208.996 33.896 208.822 33.5095 208.476 33.2358C208.137 32.954 207.649 32.8132 207.013 32.8132C206.021 32.8132 205.251 33.1271 204.703 33.7551L204.087 33.2237C204.417 32.8373 204.836 32.5394 205.344 32.3301C205.86 32.1207 206.44 32.0161 207.085 32.0161C207.947 32.0161 208.629 32.2214 209.129 32.632C209.637 33.0346 209.89 33.5901 209.89 34.2985C209.89 34.7333 209.794 35.1519 209.6 35.5545C209.407 35.9571 209.04 36.4199 208.5 36.9433L205.622 39.7691H210.277Z" fill="#262840"/>
<path d="M240.955 25.8779H228.864C226.479 25.8779 224.545 27.8089 224.545 30.1909V42.2672C224.545 44.6492 226.479 46.5802 228.864 46.5802H240.955C243.339 46.5802 245.273 44.6492 245.273 42.2672V30.1909C245.273 27.8089 243.339 25.8779 240.955 25.8779Z" fill="white"/>
<path d="M234.909 42.2673C238.248 42.2673 240.955 39.5639 240.955 36.2291C240.955 32.8943 238.248 30.1909 234.909 30.1909C231.57 30.1909 228.864 32.8943 228.864 36.2291C228.864 39.5639 231.57 42.2673 234.909 42.2673Z" fill="#FFC000"/>
<path d="M259.386 36.11C259.918 36.2871 260.325 36.5528 260.608 36.907C260.898 37.2613 261.043 37.6879 261.043 38.1871C261.043 38.6782 260.91 39.109 260.644 39.4793C260.378 39.8416 259.995 40.1234 259.495 40.3246C259.004 40.5178 258.423 40.6145 257.754 40.6145C256.738 40.6145 255.94 40.3971 255.36 39.9623C254.78 39.5276 254.49 38.9359 254.49 38.1871C254.49 37.6799 254.627 37.2532 254.901 36.907C255.183 36.5528 255.59 36.2871 256.122 36.11C255.687 35.9409 255.356 35.6994 255.13 35.3854C254.905 35.0634 254.792 34.685 254.792 34.2502C254.792 33.5659 255.058 33.0225 255.59 32.6199C256.13 32.2174 256.852 32.0161 257.754 32.0161C258.351 32.0161 258.871 32.1087 259.314 32.2939C259.765 32.471 260.116 32.7286 260.366 33.0668C260.615 33.4049 260.741 33.7994 260.741 34.2502C260.741 34.685 260.624 35.0634 260.39 35.3854C260.156 35.6994 259.822 35.9409 259.386 36.11ZM255.662 34.2744C255.662 34.7413 255.848 35.1117 256.219 35.3854C256.589 35.6591 257.101 35.796 257.754 35.796C258.407 35.796 258.919 35.6591 259.29 35.3854C259.669 35.1117 259.858 34.7454 259.858 34.2865C259.858 33.8114 259.664 33.4371 259.278 33.1634C258.898 32.8897 258.391 32.7528 257.754 32.7528C257.109 32.7528 256.598 32.8897 256.219 33.1634C255.848 33.4371 255.662 33.8075 255.662 34.2744ZM257.754 39.8778C258.504 39.8778 259.088 39.7249 259.507 39.4189C259.935 39.1129 260.148 38.6984 260.148 38.175C260.148 37.6517 259.935 37.2411 259.507 36.9433C259.088 36.6373 258.504 36.4844 257.754 36.4844C257.012 36.4844 256.428 36.6373 256.001 36.9433C255.582 37.2411 255.372 37.6517 255.372 38.175C255.372 38.7064 255.582 39.125 256.001 39.431C256.42 39.7288 257.004 39.8778 257.754 39.8778Z" fill="#262840"/>
<path d="M291.046 25.8779H278.955C276.57 25.8779 274.636 27.8089 274.636 30.1909V42.2672C274.636 44.6492 276.57 46.5802 278.955 46.5802H291.046C293.43 46.5802 295.364 44.6492 295.364 42.2672V30.1909C295.364 27.8089 293.43 25.8779 291.046 25.8779Z" fill="white"/>
<path d="M285 42.2673C288.339 42.2673 291.045 39.5639 291.045 36.2291C291.045 32.8943 288.339 30.1909 285 30.1909C281.661 30.1909 278.955 32.8943 278.955 36.2291C278.955 39.5639 281.661 42.2673 285 42.2673Z" fill="#FF4444"/>
<path d="M306.974 32.0886V40.5421H306.104V32.8615H304.109V32.0886H306.974Z" fill="#262840"/>
</g>
<g filter="url(#filter1_dii)">
<path d="M349.773 40.542H51.8751C49.4902 40.542 47.5569 42.473 47.5569 44.855V74.1832C47.5569 76.5652 49.4902 78.4962 51.8751 78.4962H349.773C352.157 78.4962 354.091 76.5652 354.091 74.1832V44.855C354.091 42.473 352.157 40.542 349.773 40.542Z" fill="white" fill-opacity="0.5"/>
<path d="M143.421 54.3435H65.6933C62.8315 54.3435 60.5115 56.6607 60.5115 59.5191C60.5115 62.3775 62.8315 64.6946 65.6933 64.6946H143.421C146.282 64.6946 148.602 62.3775 148.602 59.5191C148.602 56.6607 146.282 54.3435 143.421 54.3435Z" fill="#E0E6EB"/>
<path d="M173.648 54.3435H166.739C163.877 54.3435 161.557 56.6607 161.557 59.5191C161.557 62.3775 163.877 64.6946 166.739 64.6946H173.648C176.51 64.6946 178.83 62.3775 178.83 59.5191C178.83 56.6607 176.51 54.3435 173.648 54.3435Z" fill="#E0E6EB"/>
<path d="M208.193 49.168H196.102C193.717 49.168 191.784 51.099 191.784 53.4809V65.5573C191.784 67.9393 193.717 69.8703 196.102 69.8703H208.193C210.578 69.8703 212.511 67.9393 212.511 65.5573V53.4809C212.511 51.099 210.578 49.168 208.193 49.168Z" fill="white"/>
<path d="M202.148 65.5573C205.487 65.5573 208.193 62.8539 208.193 59.5191C208.193 56.1843 205.487 53.481 202.148 53.481C198.809 53.481 196.103 56.1843 196.103 59.5191C196.103 62.8539 198.809 65.5573 202.148 65.5573Z" fill="#6FCF97"/>
<path d="M224.654 59.0015C225.541 59.0498 226.214 59.2913 226.673 59.7261C227.141 60.1528 227.375 60.7123 227.375 61.4047C227.375 61.8878 227.258 62.3185 227.024 62.6969C226.79 63.0672 226.444 63.3611 225.984 63.5785C225.525 63.7958 224.964 63.9045 224.304 63.9045C223.691 63.9045 223.111 63.8079 222.562 63.6147C222.023 63.4134 221.587 63.1478 221.257 62.8176L221.68 62.1293C221.962 62.4191 222.337 62.6566 222.804 62.8418C223.271 63.0189 223.772 63.1075 224.304 63.1075C224.997 63.1075 225.532 62.9585 225.912 62.6606C226.291 62.3547 226.48 61.9361 226.48 61.4047C226.48 60.8814 226.291 60.4708 225.912 60.1729C225.532 59.8751 224.961 59.7261 224.195 59.7261H223.59V59.0861L225.936 56.1515H221.607V55.3786H227.048V55.9945L224.654 59.0015ZM234.322 63.0592V63.8321H228.385V63.2162L231.904 59.7744C232.347 59.3397 232.645 58.9653 232.798 58.6513C232.96 58.3293 233.04 58.0072 233.04 57.6852C233.04 57.186 232.866 56.7996 232.52 56.5259C232.182 56.2441 231.694 56.1032 231.057 56.1032C230.066 56.1032 229.296 56.4172 228.748 57.0452L228.131 56.5138C228.462 56.1273 228.881 55.8295 229.389 55.6201C229.904 55.4108 230.485 55.3062 231.13 55.3062C231.992 55.3062 232.673 55.5115 233.173 55.922C233.681 56.3246 233.935 56.8801 233.935 57.5886C233.935 58.0233 233.838 58.442 233.645 58.8445C233.451 59.2471 233.084 59.71 232.544 60.2333L229.667 63.0592H234.322Z" fill="#262840"/>
<path d="M264.33 49.168H252.239C249.854 49.168 247.921 51.099 247.921 53.4809V65.5573C247.921 67.9393 249.854 69.8703 252.239 69.8703H264.33C266.715 69.8703 268.648 67.9393 268.648 65.5573V53.4809C268.648 51.099 266.715 49.168 264.33 49.168Z" fill="white"/>
<path d="M258.284 65.5573C261.623 65.5573 264.33 62.8539 264.33 59.5191C264.33 56.1843 261.623 53.481 258.284 53.481C254.945 53.481 252.239 56.1843 252.239 59.5191C252.239 62.8539 254.945 65.5573 258.284 65.5573Z" fill="#FFC000"/>
<path d="M280.259 55.3786V63.832H279.388V56.1515H277.393V55.3786H280.259ZM288.062 63.0592V63.832H282.125V63.2162L285.643 59.7744C286.086 59.3396 286.384 58.9653 286.538 58.6513C286.699 58.3293 286.78 58.0072 286.78 57.6852C286.78 57.186 286.606 56.7996 286.26 56.5259C285.921 56.2441 285.434 56.1032 284.797 56.1032C283.806 56.1032 283.035 56.4172 282.488 57.0452L281.871 56.5138C282.201 56.1273 282.621 55.8295 283.128 55.6201C283.644 55.4108 284.224 55.3062 284.87 55.3062C285.731 55.3062 286.413 55.5115 286.913 55.922C287.421 56.3246 287.675 56.8801 287.675 57.5886C287.675 58.0233 287.578 58.4419 287.384 58.8445C287.191 59.2471 286.824 59.71 286.284 60.2333L283.407 63.0592H288.062Z" fill="#262840"/>
<path d="M318.739 49.168H306.648C304.263 49.168 302.33 51.099 302.33 53.4809V65.5573C302.33 67.9393 304.263 69.8703 306.648 69.8703H318.739C321.124 69.8703 323.057 67.9393 323.057 65.5573V53.4809C323.057 51.099 321.124 49.168 318.739 49.168Z" fill="white"/>
<path d="M312.693 65.5573C316.032 65.5573 318.739 62.8539 318.739 59.5191C318.739 56.1843 316.032 53.481 312.693 53.481C309.355 53.481 306.648 56.1843 306.648 59.5191C306.648 62.8539 309.355 65.5573 312.693 65.5573Z" fill="#FF4444"/>
<path d="M339.516 61.6101H337.823V63.8321H336.953V61.6101H332.177V60.9821L336.663 55.3787H337.63L333.301 60.8372H336.977V58.8808H337.823V60.8372H339.516V61.6101Z" fill="#262840"/>
</g>
</g>
<defs>
<filter id="filter0_dii" x="-4.09082" y="-2.74805" width="357.009" height="97.9542" filterUnits="userSpaceOnUse" color-interpolation-filters="sRGB">
<feFlood flood-opacity="0" result="BackgroundImageFix"/>
<feColorMatrix in="SourceAlpha" type="matrix" values="0 0 0 0 0 0 0 0 0 0 0 0 0 0 0 0 0 0 127 0" result="hardAlpha"/>
<feOffset dy="10"/>
<feGaussianBlur stdDeviation="15"/>
<feColorMatrix type="matrix" values="0 0 0 0 0.446597 0 0 0 0 0.461019 0 0 0 0 0.536736 0 0 0 0.1 0"/>
<feBlend mode="normal" in2="BackgroundImageFix" result="effect1_dropShadow"/>
<feBlend mode="normal" in="SourceGraphic" in2="effect1_dropShadow" result="shape"/>
<feColorMatrix in="SourceAlpha" type="matrix" values="0 0 0 0 0 0 0 0 0 0 0 0 0 0 0 0 0 0 127 0" result="hardAlpha"/>
<feOffset dx="-1" dy="-1"/>
<feGaussianBlur stdDeviation="1"/>
<feComposite in2="hardAlpha" operator="arithmetic" k2="-1" k3="1"/>
<feColorMatrix type="matrix" values="0 0 0 0 0.4 0 0 0 0 0.4 0 0 0 0 0.4 0 0 0 0.1 0"/>
<feBlend mode="normal" in2="shape" result="effect2_innerShadow"/>
<feColorMatrix in="SourceAlpha" type="matrix" values="0 0 0 0 0 0 0 0 0 0 0 0 0 0 0 0 0 0 127 0" result="hardAlpha"/>
<feOffset dx="1" dy="1"/>
<feGaussianBlur stdDeviation="1"/>
<feComposite in2="hardAlpha" operator="arithmetic" k2="-1" k3="1"/>
<feColorMatrix type="matrix" values="0 0 0 0 1 0 0 0 0 1 0 0 0 0 1 0 0 0 0.8 0"/>
<feBlend mode="normal" in2="effect2_innerShadow" result="effect3_innerShadow"/>
</filter>
<filter id="filter1_dii" x="17.5569" y="20.542" width="366.534" height="97.9542" filterUnits="userSpaceOnUse" color-interpolation-filters="sRGB">
<feFlood flood-opacity="0" result="BackgroundImageFix"/>
<feColorMatrix in="SourceAlpha" type="matrix" values="0 0 0 0 0 0 0 0 0 0 0 0 0 0 0 0 0 0 127 0" result="hardAlpha"/>
<feOffset dy="10"/>
<feGaussianBlur stdDeviation="15"/>
<feColorMatrix type="matrix" values="0 0 0 0 0.446597 0 0 0 0 0.461019 0 0 0 0 0.536736 0 0 0 0.1 0"/>
<feBlend mode="normal" in2="BackgroundImageFix" result="effect1_dropShadow"/>
<feBlend mode="normal" in="SourceGraphic" in2="effect1_dropShadow" result="shape"/>
<feColorMatrix in="SourceAlpha" type="matrix" values="0 0 0 0 0 0 0 0 0 0 0 0 0 0 0 0 0 0 127 0" result="hardAlpha"/>
<feOffset dx="-1" dy="-1"/>
<feGaussianBlur stdDeviation="1"/>
<feComposite in2="hardAlpha" operator="arithmetic" k2="-1" k3="1"/>
<feColorMatrix type="matrix" values="0 0 0 0 0.4 0 0 0 0 0.4 0 0 0 0 0.4 0 0 0 0.1 0"/>
<feBlend mode="normal" in2="shape" result="effect2_innerShadow"/>
<feColorMatrix in="SourceAlpha" type="matrix" values="0 0 0 0 0 0 0 0 0 0 0 0 0 0 0 0 0 0 127 0" result="hardAlpha"/>
<feOffset dx="1" dy="1"/>
<feGaussianBlur stdDeviation="1"/>
<feComposite in2="hardAlpha" operator="arithmetic" k2="-1" k3="1"/>
<feColorMatrix type="matrix" values="0 0 0 0 1 0 0 0 0 1 0 0 0 0 1 0 0 0 0.8 0"/>
<feBlend mode="normal" in2="effect2_innerShadow" result="effect3_innerShadow"/>
</filter>
<clipPath id="clip0">
<rect width="380" height="113" fill="white"/>
</clipPath>
</defs>
</svg>
