<svg width="380" height="113" viewBox="0 0 380 113" fill="none" xmlns="http://www.w3.org/2000/svg">
<path d="M346.21 11.9286H5.93251C3.20836 11.9286 1 14.1381 1 16.8637V50.4221C1 53.1477 3.20836 55.3572 5.93251 55.3572H346.21C348.934 55.3572 351.143 53.1477 351.143 50.4221V16.8637C351.143 14.1381 348.934 11.9286 346.21 11.9286Z" fill="#33394C"/>
<path d="M110.501 27.7208H21.7164C18.4474 27.7208 15.7974 30.3722 15.7974 33.6429C15.7974 36.9135 18.4474 39.5649 21.7164 39.5649H110.501C113.77 39.5649 116.42 36.9135 116.42 33.6429C116.42 30.3722 113.77 27.7208 110.501 27.7208Z" fill="#161922"/>
<path d="M145.03 27.7208H137.138C133.869 27.7208 131.219 30.3722 131.219 33.6429C131.219 36.9135 133.869 39.5649 137.138 39.5649H145.03C148.298 39.5649 150.949 36.9135 150.949 33.6429C150.949 30.3722 148.298 27.7208 145.03 27.7208Z" fill="#161922"/>
<path d="M184.49 21.7987H170.679C167.954 21.7987 165.746 24.0082 165.746 26.7338V40.552C165.746 43.2775 167.954 45.487 170.679 45.487H184.49C187.214 45.487 189.422 43.2775 189.422 40.552V26.7338C189.422 24.0082 187.214 21.7987 184.49 21.7987Z" fill="#33394C"/>
<path d="M177.584 40.552C181.398 40.552 184.489 37.4587 184.489 33.6429C184.489 29.8271 181.398 26.7338 177.584 26.7338C173.77 26.7338 170.678 29.8271 170.678 33.6429C170.678 37.4587 173.77 40.552 177.584 40.552Z" fill="#169C18"/>
<path d="M203.292 33.0507C204.305 33.106 205.073 33.3823 205.598 33.8798C206.132 34.368 206.399 35.0082 206.399 35.8005C206.399 36.3532 206.266 36.846 205.999 37.279C205.731 37.7028 205.336 38.039 204.811 38.2878C204.286 38.5365 203.646 38.6609 202.891 38.6609C202.192 38.6609 201.529 38.5503 200.903 38.3292C200.286 38.099 199.789 37.795 199.411 37.4172L199.894 36.6296C200.217 36.9612 200.645 37.233 201.179 37.4449C201.712 37.6475 202.284 37.7489 202.891 37.7489C203.683 37.7489 204.295 37.5784 204.728 37.2376C205.161 36.8875 205.377 36.4085 205.377 35.8005C205.377 35.2017 205.161 34.7319 204.728 34.391C204.295 34.0502 203.642 33.8798 202.767 33.8798H202.076V33.1474L204.756 29.7896H199.811V28.9052H206.026V29.61L203.292 33.0507ZM214.335 37.6936V38.578H207.553V37.8732L211.572 33.935C212.079 33.4376 212.42 33.0092 212.595 32.65C212.779 32.2815 212.871 31.913 212.871 31.5445C212.871 30.9733 212.672 30.5311 212.277 30.218C211.89 29.8955 211.333 29.7343 210.606 29.7343C209.473 29.7343 208.594 30.0936 207.968 30.8121L207.263 30.2041C207.641 29.7619 208.12 29.4211 208.7 29.1816C209.289 28.942 209.952 28.8223 210.689 28.8223C211.674 28.8223 212.451 29.0572 213.023 29.527C213.603 29.9877 213.893 30.6233 213.893 31.434C213.893 31.9314 213.782 32.4104 213.561 32.871C213.34 33.3317 212.921 33.8613 212.304 34.4601L209.017 37.6936H214.335Z" fill="#AFB6CA"/>
<path d="M248.612 21.7987H234.801C232.077 21.7987 229.868 24.0082 229.868 26.7338V40.552C229.868 43.2775 232.077 45.487 234.801 45.487H248.612C251.336 45.487 253.544 43.2775 253.544 40.552V26.7338C253.544 24.0082 251.336 21.7987 248.612 21.7987Z" fill="#33394C"/>
<path d="M241.707 40.552C245.52 40.552 248.612 37.4587 248.612 33.6429C248.612 29.8271 245.52 26.7338 241.707 26.7338C237.893 26.7338 234.801 29.8271 234.801 33.6429C234.801 37.4587 237.893 40.552 241.707 40.552Z" fill="#F6AB55"/>
<path d="M266.807 28.9052V38.5779H265.813V29.7896H263.534V28.9052H266.807ZM275.72 37.6936V38.5779H268.939V37.8732L272.958 33.935C273.464 33.4376 273.804 33.0092 273.98 32.65C274.163 32.2815 274.256 31.9129 274.256 31.5445C274.256 30.9733 274.058 30.5311 273.662 30.2179C273.275 29.8955 272.718 29.7343 271.991 29.7343C270.858 29.7343 269.979 30.0936 269.353 30.8121L268.649 30.2041C269.026 29.7619 269.505 29.4211 270.085 29.1816C270.674 28.942 271.337 28.8223 272.074 28.8223C273.058 28.8223 273.837 29.0572 274.408 29.527C274.988 29.9877 275.278 30.6233 275.278 31.434C275.278 31.9314 275.167 32.4104 274.947 32.871C274.726 33.3317 274.306 33.8613 273.69 34.4601L270.403 37.6936H275.72Z" fill="#AFB6CA"/>
<path d="M310.762 21.7987H296.951C294.226 21.7987 292.018 24.0082 292.018 26.7338V40.552C292.018 43.2775 294.226 45.487 296.951 45.487H310.762C313.486 45.487 315.694 43.2775 315.694 40.552V26.7338C315.694 24.0082 313.486 21.7987 310.762 21.7987Z" fill="#33394C"/>
<path d="M303.856 40.552C307.67 40.552 310.762 37.4587 310.762 33.6429C310.762 29.8271 307.67 26.7338 303.856 26.7338C300.043 26.7338 296.951 29.8271 296.951 33.6429C296.951 37.4587 300.043 40.552 303.856 40.552Z" fill="#F65855"/>
<path d="M334.495 36.0353H332.561V38.5779H331.567V36.0353H326.112V35.3168L331.235 28.9052H332.34L327.396 35.151H331.595V32.9124H332.561V35.151H334.495V36.0353Z" fill="#AFB6CA"/>
<path d="M373.353 58.0714H33.0753C30.3512 58.0714 28.1428 60.2809 28.1428 63.0065V96.5649C28.1428 99.2905 30.3512 101.5 33.0753 101.5H373.353C376.077 101.5 378.286 99.2905 378.286 96.5649V63.0065C378.286 60.2809 376.077 58.0714 373.353 58.0714Z" fill="#33394C"/>
<path d="M137.644 73.8636H48.8592C45.5902 73.8636 42.9402 76.515 42.9402 79.7857C42.9402 83.0563 45.5902 85.7078 48.8592 85.7078H137.644C140.913 85.7078 143.563 83.0563 143.563 79.7857C143.563 76.515 140.913 73.8636 137.644 73.8636Z" fill="#161922"/>
<path d="M172.173 73.8636H164.281C161.012 73.8636 158.362 76.515 158.362 79.7857C158.362 83.0563 161.012 85.7078 164.281 85.7078H172.173C175.442 85.7078 178.092 83.0563 178.092 79.7857C178.092 76.515 175.442 73.8636 172.173 73.8636Z" fill="#161922"/>
<path d="M211.632 67.9415H197.821C195.097 67.9415 192.889 70.151 192.889 72.8766V86.6948C192.889 89.4203 195.097 91.6298 197.821 91.6298H211.632C214.356 91.6298 216.565 89.4203 216.565 86.6948V72.8766C216.565 70.151 214.356 67.9415 211.632 67.9415Z" fill="#33394C"/>
<path d="M204.727 86.6948C208.54 86.6948 211.632 83.6015 211.632 79.7857C211.632 75.97 208.54 72.8766 204.727 72.8766C200.913 72.8766 197.821 75.97 197.821 79.7857C197.821 83.6015 200.913 86.6948 204.727 86.6948Z" fill="#169C18"/>
<path d="M233.357 83.2284V84.1128H226.576V83.408L230.595 79.4699C231.101 78.9724 231.442 78.544 231.617 78.1848C231.801 77.8163 231.893 77.4478 231.893 77.0793C231.893 76.5081 231.695 76.0659 231.299 75.7528C230.912 75.4303 230.355 75.2691 229.628 75.2691C228.495 75.2691 227.616 75.6284 226.99 76.347L226.286 75.7389C226.663 75.2968 227.142 74.956 227.722 74.7164C228.311 74.4769 228.974 74.3571 229.711 74.3571C230.696 74.3571 231.474 74.592 232.045 75.0619C232.625 75.5225 232.915 76.1581 232.915 76.9688C232.915 77.4662 232.804 77.9452 232.583 78.4059C232.362 78.8665 231.943 79.3961 231.327 79.995L228.04 83.2284H233.357Z" fill="#AFB6CA"/>
<path d="M275.755 67.9415H261.944C259.22 67.9415 257.011 70.151 257.011 72.8766V86.6948C257.011 89.4203 259.22 91.6298 261.944 91.6298H275.755C278.479 91.6298 280.688 89.4203 280.688 86.6948V72.8766C280.688 70.151 278.479 67.9415 275.755 67.9415Z" fill="#33394C"/>
<path d="M268.849 86.6948C272.663 86.6948 275.755 83.6015 275.755 79.7857C275.755 75.97 272.663 72.8766 268.849 72.8766C265.036 72.8766 261.944 75.97 261.944 79.7857C261.944 83.6015 265.036 86.6948 268.849 86.6948Z" fill="#F6AB55"/>
<path d="M293.95 75.048V84.7208H292.955V75.9324H290.677V75.048H293.95Z" fill="#AFB6CA"/>
<path d="M337.905 67.9415H324.094C321.369 67.9415 319.161 70.151 319.161 72.8766V86.6948C319.161 89.4203 321.369 91.6298 324.094 91.6298H337.905C340.629 91.6298 342.837 89.4203 342.837 86.6948V72.8766C342.837 70.151 340.629 67.9415 337.905 67.9415Z" fill="#33394C"/>
<path d="M330.999 86.6948C334.813 86.6948 337.905 83.6015 337.905 79.7857C337.905 75.97 334.813 72.8766 330.999 72.8766C327.185 72.8766 324.094 75.97 324.094 79.7857C324.094 83.6015 327.185 86.6948 330.999 86.6948Z" fill="#F65855"/>
<path d="M361.637 82.1781H359.704V84.7207H358.71V82.1781H353.254V81.4596L358.378 75.048H359.483L354.539 81.2938H358.737V79.0552H359.704V81.2938H361.637V82.1781Z" fill="#AFB6CA"/>
</svg>
