<svg width="440" height="131" viewBox="0 0 440 131" fill="none" xmlns="http://www.w3.org/2000/svg">
<g filter="url(#filter0_bdii)">
<rect x="30" y="20" width="343.905" height="44" rx="5" fill="white" fill-opacity="0.5"/>
<rect x="45" y="36" width="102" height="12" rx="6" fill="#E0E6EB"/>
<rect x="162" y="36" width="20" height="12" rx="6" fill="#E0E6EB"/>
<rect x="197" y="30" width="24" height="24" rx="5" fill="white"/>
<circle cx="209" cy="42" r="7" fill="#6FCF97"/>
<path d="M234.444 37.2V47H233.436V38.096H231.126V37.2H234.444ZM243.479 46.104V47H236.605V46.286L240.679 42.296C241.192 41.792 241.537 41.358 241.715 40.994C241.901 40.6207 241.995 40.2473 241.995 39.874C241.995 39.2953 241.794 38.8473 241.393 38.53C241.001 38.2033 240.436 38.04 239.699 38.04C238.551 38.04 237.659 38.404 237.025 39.132L236.311 38.516C236.693 38.068 237.179 37.7227 237.767 37.48C238.364 37.2373 239.036 37.116 239.783 37.116C240.781 37.116 241.57 37.354 242.149 37.83C242.737 38.2967 243.031 38.9407 243.031 39.762C243.031 40.266 242.919 40.7513 242.695 41.218C242.471 41.6847 242.046 42.2213 241.421 42.828L238.089 46.104H243.479Z" fill="#262840"/>
<rect x="260" y="30" width="24" height="24" rx="5" fill="white"/>
<circle cx="272" cy="42" r="7" fill="#FFC000"/>
<path d="M300.342 41.862C300.958 42.0673 301.429 42.3753 301.756 42.786C302.092 43.1967 302.26 43.6913 302.26 44.27C302.26 44.8393 302.106 45.3387 301.798 45.768C301.49 46.188 301.047 46.5147 300.468 46.748C299.899 46.972 299.227 47.084 298.452 47.084C297.276 47.084 296.352 46.832 295.68 46.328C295.008 45.824 294.672 45.138 294.672 44.27C294.672 43.682 294.831 43.1873 295.148 42.786C295.475 42.3753 295.946 42.0673 296.562 41.862C296.058 41.666 295.675 41.386 295.414 41.022C295.153 40.6487 295.022 40.21 295.022 39.706C295.022 38.9127 295.33 38.2827 295.946 37.816C296.571 37.3493 297.407 37.116 298.452 37.116C299.143 37.116 299.745 37.2233 300.258 37.438C300.781 37.6433 301.187 37.942 301.476 38.334C301.765 38.726 301.91 39.1833 301.91 39.706C301.91 40.21 301.775 40.6487 301.504 41.022C301.233 41.386 300.846 41.666 300.342 41.862ZM296.03 39.734C296.03 40.2753 296.245 40.7047 296.674 41.022C297.103 41.3393 297.696 41.498 298.452 41.498C299.208 41.498 299.801 41.3393 300.23 41.022C300.669 40.7047 300.888 40.28 300.888 39.748C300.888 39.1973 300.664 38.7633 300.216 38.446C299.777 38.1287 299.189 37.97 298.452 37.97C297.705 37.97 297.113 38.1287 296.674 38.446C296.245 38.7633 296.03 39.1927 296.03 39.734ZM298.452 46.23C299.32 46.23 299.997 46.0527 300.482 45.698C300.977 45.3433 301.224 44.8627 301.224 44.256C301.224 43.6493 300.977 43.1733 300.482 42.828C299.997 42.4733 299.32 42.296 298.452 42.296C297.593 42.296 296.917 42.4733 296.422 42.828C295.937 43.1733 295.694 43.6493 295.694 44.256C295.694 44.872 295.937 45.3573 296.422 45.712C296.907 46.0573 297.584 46.23 298.452 46.23Z" fill="#262840"/>
<rect x="318" y="30" width="24" height="24" rx="5" fill="white"/>
<circle cx="330" cy="42" r="7" fill="#FF4444"/>
<path d="M355.444 37.2V47H354.436V38.096H352.126V37.2H355.444Z" fill="#262840"/>
</g>
<g filter="url(#filter1_bdii)">
<rect x="55.0659" y="47" width="354.934" height="44" rx="5" fill="white" fill-opacity="0.5"/>
<rect x="70.0659" y="63" width="102" height="12" rx="6" fill="#E0E6EB"/>
<rect x="187.066" y="63" width="20" height="12" rx="6" fill="#E0E6EB"/>
<rect x="222.066" y="57" width="24" height="24" rx="5" fill="white"/>
<circle cx="234.066" cy="69" r="7" fill="#6FCF97"/>
<path d="M260.126 68.4C261.153 68.456 261.932 68.736 262.464 69.24C263.005 69.7347 263.276 70.3833 263.276 71.186C263.276 71.746 263.141 72.2453 262.87 72.684C262.599 73.1133 262.198 73.454 261.666 73.706C261.134 73.958 260.485 74.084 259.72 74.084C259.011 74.084 258.339 73.972 257.704 73.748C257.079 73.5147 256.575 73.2067 256.192 72.824L256.682 72.026C257.009 72.362 257.443 72.6373 257.984 72.852C258.525 73.0573 259.104 73.16 259.72 73.16C260.523 73.16 261.143 72.9873 261.582 72.642C262.021 72.2873 262.24 71.802 262.24 71.186C262.24 70.5793 262.021 70.1033 261.582 69.758C261.143 69.4127 260.481 69.24 259.594 69.24H258.894V68.498L261.61 65.096H256.598V64.2H262.898V64.914L260.126 68.4ZM271.32 73.104V74H264.446V73.286L268.52 69.296C269.033 68.792 269.379 68.358 269.556 67.994C269.743 67.6207 269.836 67.2473 269.836 66.874C269.836 66.2953 269.635 65.8473 269.234 65.53C268.842 65.2033 268.277 65.04 267.54 65.04C266.392 65.04 265.501 65.404 264.866 66.132L264.152 65.516C264.535 65.068 265.02 64.7227 265.608 64.48C266.205 64.2373 266.877 64.116 267.624 64.116C268.623 64.116 269.411 64.354 269.99 64.83C270.578 65.2967 270.872 65.9407 270.872 66.762C270.872 67.266 270.76 67.7513 270.536 68.218C270.312 68.6847 269.887 69.2213 269.262 69.828L265.93 73.104H271.32Z" fill="#262840"/>
<rect x="287.066" y="57" width="24" height="24" rx="5" fill="white"/>
<circle cx="299.066" cy="69" r="7" fill="#FFC000"/>
<path d="M324.51 64.2V74H323.502V65.096H321.192V64.2H324.51ZM333.545 73.104V74H326.671V73.286L330.745 69.296C331.258 68.792 331.603 68.358 331.781 67.994C331.967 67.6207 332.061 67.2473 332.061 66.874C332.061 66.2953 331.86 65.8473 331.459 65.53C331.067 65.2033 330.502 65.04 329.765 65.04C328.617 65.04 327.725 65.404 327.091 66.132L326.377 65.516C326.759 65.068 327.245 64.7227 327.833 64.48C328.43 64.2373 329.102 64.116 329.849 64.116C330.847 64.116 331.636 64.354 332.215 64.83C332.803 65.2967 333.097 65.9407 333.097 66.762C333.097 67.266 332.985 67.7513 332.761 68.218C332.537 68.6847 332.112 69.2213 331.487 69.828L328.155 73.104H333.545Z" fill="#262840"/>
<rect x="350.066" y="57" width="24" height="24" rx="5" fill="white"/>
<circle cx="362.066" cy="69" r="7" fill="#FF4444"/>
<path d="M393.124 71.424H391.164V74H390.156V71.424H384.626V70.696L389.82 64.2H390.94L385.928 70.528H390.184V68.26H391.164V70.528H393.124V71.424Z" fill="#262840"/>
</g>
<defs>
<filter id="filter0_bdii" x="0" y="0" width="403.905" height="104" filterUnits="userSpaceOnUse" color-interpolation-filters="sRGB">
<feFlood flood-opacity="0" result="BackgroundImageFix"/>
<feGaussianBlur in="BackgroundImage" stdDeviation="10"/>
<feComposite in2="SourceAlpha" operator="in" result="effect1_backgroundBlur"/>
<feColorMatrix in="SourceAlpha" type="matrix" values="0 0 0 0 0 0 0 0 0 0 0 0 0 0 0 0 0 0 127 0"/>
<feOffset dy="10"/>
<feGaussianBlur stdDeviation="15"/>
<feColorMatrix type="matrix" values="0 0 0 0 0.446597 0 0 0 0 0.461019 0 0 0 0 0.536736 0 0 0 0.1 0"/>
<feBlend mode="normal" in2="effect1_backgroundBlur" result="effect2_dropShadow"/>
<feBlend mode="normal" in="SourceGraphic" in2="effect2_dropShadow" result="shape"/>
<feColorMatrix in="SourceAlpha" type="matrix" values="0 0 0 0 0 0 0 0 0 0 0 0 0 0 0 0 0 0 127 0" result="hardAlpha"/>
<feOffset dx="-1" dy="-1"/>
<feGaussianBlur stdDeviation="1"/>
<feComposite in2="hardAlpha" operator="arithmetic" k2="-1" k3="1"/>
<feColorMatrix type="matrix" values="0 0 0 0 0.4 0 0 0 0 0.4 0 0 0 0 0.4 0 0 0 0.1 0"/>
<feBlend mode="normal" in2="shape" result="effect3_innerShadow"/>
<feColorMatrix in="SourceAlpha" type="matrix" values="0 0 0 0 0 0 0 0 0 0 0 0 0 0 0 0 0 0 127 0" result="hardAlpha"/>
<feOffset dx="1" dy="1"/>
<feGaussianBlur stdDeviation="1"/>
<feComposite in2="hardAlpha" operator="arithmetic" k2="-1" k3="1"/>
<feColorMatrix type="matrix" values="0 0 0 0 1 0 0 0 0 1 0 0 0 0 1 0 0 0 0.8 0"/>
<feBlend mode="normal" in2="effect3_innerShadow" result="effect4_innerShadow"/>
</filter>
<filter id="filter1_bdii" x="25.0659" y="27" width="414.934" height="104" filterUnits="userSpaceOnUse" color-interpolation-filters="sRGB">
<feFlood flood-opacity="0" result="BackgroundImageFix"/>
<feGaussianBlur in="BackgroundImage" stdDeviation="5"/>
<feComposite in2="SourceAlpha" operator="in" result="effect1_backgroundBlur"/>
<feColorMatrix in="SourceAlpha" type="matrix" values="0 0 0 0 0 0 0 0 0 0 0 0 0 0 0 0 0 0 127 0"/>
<feOffset dy="10"/>
<feGaussianBlur stdDeviation="15"/>
<feColorMatrix type="matrix" values="0 0 0 0 0.446597 0 0 0 0 0.461019 0 0 0 0 0.536736 0 0 0 0.1 0"/>
<feBlend mode="normal" in2="effect1_backgroundBlur" result="effect2_dropShadow"/>
<feBlend mode="normal" in="SourceGraphic" in2="effect2_dropShadow" result="shape"/>
<feColorMatrix in="SourceAlpha" type="matrix" values="0 0 0 0 0 0 0 0 0 0 0 0 0 0 0 0 0 0 127 0" result="hardAlpha"/>
<feOffset dx="-1" dy="-1"/>
<feGaussianBlur stdDeviation="1"/>
<feComposite in2="hardAlpha" operator="arithmetic" k2="-1" k3="1"/>
<feColorMatrix type="matrix" values="0 0 0 0 0.4 0 0 0 0 0.4 0 0 0 0 0.4 0 0 0 0.1 0"/>
<feBlend mode="normal" in2="shape" result="effect3_innerShadow"/>
<feColorMatrix in="SourceAlpha" type="matrix" values="0 0 0 0 0 0 0 0 0 0 0 0 0 0 0 0 0 0 127 0" result="hardAlpha"/>
<feOffset dx="1" dy="1"/>
<feGaussianBlur stdDeviation="1"/>
<feComposite in2="hardAlpha" operator="arithmetic" k2="-1" k3="1"/>
<feColorMatrix type="matrix" values="0 0 0 0 1 0 0 0 0 1 0 0 0 0 1 0 0 0 0.8 0"/>
<feBlend mode="normal" in2="effect3_innerShadow" result="effect4_innerShadow"/>
</filter>
</defs>
</svg>
